<svg width="120" height="100" viewBox="0 0 120 100" fill="none" xmlns="http://www.w3.org/2000/svg">
<g id="triangles">
  <g id="light_group">
    <path id="light_one" opacity="0.7" d="M45.5 45.4019C47.5 46.5566 47.5 49.4434 45.5 50.5981L14 68.7846C12 69.9393 9.5 68.4959 9.5 66.1865L9.5 29.8135C9.5 27.5041 12 26.0607 14 27.2154L45.5 45.4019Z" fill="#C4C4C4"/>
  </g>
  <g id="dark_group">
    <path id="dark_one" opacity="0.7" d="M59.5 45.4019C61.5 46.5566 61.5 49.4434 59.5 50.5981L28 68.7846C26 69.9393 23.5 68.4959 23.5 66.1865L23.5 29.8135C23.5 27.5041 26 26.0607 28 27.2154L59.5 45.4019Z" fill="#1196E1"/>
    <path id="dark_two" opacity="0.7" d="M45.5 45.4019C47.5 46.5566 47.5 49.4434 45.5 50.5981L14 68.7846C12 69.9393 9.5 68.4959 9.5 66.1865L9.5 29.8135C9.5 27.5041 12 26.0607 14 27.2154L45.5 45.4019Z" fill="#1196E1"/>
  </g>
</g>
  <defs>
    <clipPath id="clip0">
      <rect width="120" height="100" fill="white"/>
    </clipPath>
  </defs>
</svg>
