<svg id="visual" viewBox="0 0 900 300" width="900" height="300" xmlns="http://www.w3.org/2000/svg" xmlns:xlink="http://www.w3.org/1999/xlink" version="1.1"><rect x="0" y="0" width="900" height="300" fill="#364579"></rect><path d="M0 99L12.5 98C25 97 50 95 75 90.3C100 85.7 125 78.3 150 73.7C175 69 200 67 225 67.7C250 68.3 275 71.7 300 76.2C325 80.7 350 86.3 375 88.3C400 90.3 425 88.7 450 84.5C475 80.3 500 73.7 525 71C550 68.3 575 69.7 600 72.2C625 74.7 650 78.3 675 78.5C700 78.7 725 75.3 750 73.7C775 72 800 72 825 74.5C850 77 875 82 887.5 84.5L900 87L900 0L887.5 0C875 0 850 0 825 0C800 0 775 0 750 0C725 0 700 0 675 0C650 0 625 0 600 0C575 0 550 0 525 0C500 0 475 0 450 0C425 0 400 0 375 0C350 0 325 0 300 0C275 0 250 0 225 0C200 0 175 0 150 0C125 0 100 0 75 0C50 0 25 0 12.5 0L0 0Z" fill="#c62368"></path><path d="M0 70L12.5 70.7C25 71.3 50 72.7 75 71.3C100 70 125 66 150 62.3C175 58.7 200 55.3 225 54.7C250 54 275 56 300 55.8C325 55.7 350 53.3 375 54.2C400 55 425 59 450 61.8C475 64.7 500 66.3 525 66.2C550 66 575 64 600 61.7C625 59.3 650 56.7 675 55.7C700 54.7 725 55.3 750 53.8C775 52.3 800 48.7 825 51.7C850 54.7 875 64.3 887.5 69.2L900 74L900 0L887.5 0C875 0 850 0 825 0C800 0 775 0 750 0C725 0 700 0 675 0C650 0 625 0 600 0C575 0 550 0 525 0C500 0 475 0 450 0C425 0 400 0 375 0C350 0 325 0 300 0C275 0 250 0 225 0C200 0 175 0 150 0C125 0 100 0 75 0C50 0 25 0 12.5 0L0 0Z" fill="#d91c69"></path><path d="M0 39L12.5 37.5C25 36 50 33 75 32.7C100 32.3 125 34.7 150 37C175 39.3 200 41.7 225 44.2C250 46.7 275 49.3 300 49.5C325 49.7 350 47.3 375 47.7C400 48 425 51 450 50C475 49 500 44 525 42.7C550 41.3 575 43.7 600 42.3C625 41 650 36 675 37.3C700 38.7 725 46.3 750 49.5C775 52.7 800 51.3 825 49C850 46.7 875 43.3 887.5 41.7L900 40L900 0L887.5 0C875 0 850 0 825 0C800 0 775 0 750 0C725 0 700 0 675 0C650 0 625 0 600 0C575 0 550 0 525 0C500 0 475 0 450 0C425 0 400 0 375 0C350 0 325 0 300 0C275 0 250 0 225 0C200 0 175 0 150 0C125 0 100 0 75 0C50 0 25 0 12.5 0L0 0Z" fill="#ec1168"></path><path d="M0 21L12.5 19.3C25 17.7 50 14.3 75 12.8C100 11.3 125 11.7 150 15.7C175 19.7 200 27.3 225 28.5C250 29.7 275 24.3 300 20.8C325 17.3 350 15.7 375 18C400 20.3 425 26.7 450 28.5C475 30.3 500 27.7 525 27.7C550 27.7 575 30.3 600 30.3C625 30.3 650 27.7 675 27.2C700 26.7 725 28.3 750 29.5C775 30.7 800 31.3 825 30C850 28.7 875 25.3 887.5 23.7L900 22L900 0L887.5 0C875 0 850 0 825 0C800 0 775 0 750 0C725 0 700 0 675 0C650 0 625 0 600 0C575 0 550 0 525 0C500 0 475 0 450 0C425 0 400 0 375 0C350 0 325 0 300 0C275 0 250 0 225 0C200 0 175 0 150 0C125 0 100 0 75 0C50 0 25 0 12.5 0L0 0Z" fill="#ff0066"></path></svg>